<?xml version="1.0" encoding="UTF-8" standalone="no"?>
<svg width="50px" height="50px" viewBox="0 0 50 50" version="1.1" xmlns="http://www.w3.org/2000/svg" xmlns:xlink="http://www.w3.org/1999/xlink">
    <!-- Generator: Sketch 3.8.1 (29687) - http://www.bohemiancoding.com/sketch -->
    <title>business-affiliate-network</title>
    <desc>Created with Sketch.</desc>
    <defs></defs>
    <g id="Page-1" stroke="none" stroke-width="1" fill="none" fill-rule="evenodd">
        <g id="business-affiliate-network" fill="#31C685">
            <g id="Capa_1">
                <g id="Layer_1_110_">
                    <g id="Group">
                        <path d="M18.6882979,16.9553191 L15.6468085,14.0808511 C16.0010638,13.437234 16.2202128,12.7085106 16.2202128,11.9223404 C16.2202128,9.43085106 14.2021277,7.41276596 11.7095745,7.41276596 C9.21702128,7.41276596 7.19574468,9.42978723 7.19574468,11.9223404 C7.19574468,14.4148936 9.21702128,16.4340426 11.7095745,16.4340426 C12.5882979,16.4340426 13.4010638,16.1723404 14.0946809,15.7382979 L17.1319149,18.6095745 C17.5914894,18.0021277 18.1095745,17.4457447 18.6882979,16.9553191 L18.6882979,16.9553191 Z" id="Shape"></path>
                        <path d="M31.5531915,16.5957447 L35.5946809,9.79468085 C35.9925532,9.90851064 36.4053191,9.99042553 36.8382979,9.99042553 C39.3351064,9.99042553 41.3531915,7.9712766 41.3531915,5.4787234 C41.3531915,2.98723404 39.3351064,0.969148936 36.8382979,0.969148936 C34.3457447,0.969148936 32.3287234,2.98617021 32.3287234,5.4787234 C32.3287234,6.71595745 32.8276596,7.83404255 33.6340426,8.65 L29.6053191,15.4319149 C30.2978723,15.7457447 30.9510638,16.137234 31.5531915,16.5957447 L31.5531915,16.5957447 Z" id="Shape"></path>
                        <path d="M45.4914894,22.2893617 C43.5510638,22.2893617 41.9074468,23.5223404 41.2702128,25.2414894 L35.6553191,24.687234 C35.6553191,24.7297872 35.6617021,24.7702128 35.6617021,24.8117021 C35.6617021,25.543617 35.5808511,26.2585106 35.4351064,26.9489362 L41.0478723,27.5031915 C41.387234,29.656383 43.2414894,31.3074468 45.4914894,31.3074468 C47.9829787,31.3074468 50,29.2904255 50,26.7989362 C50,24.3085106 47.9829787,22.2893617 45.4914894,22.2893617 L45.4914894,22.2893617 Z" id="Shape"></path>
                        <path d="M29.9968085,40.0255319 L28.7414894,34.5404255 C28.0329787,34.787234 27.2957447,34.9638298 26.5265957,35.0521277 L27.7840426,40.5382979 C26.3425532,41.2925532 25.3478723,42.7829787 25.3478723,44.5234043 C25.3478723,47.0148936 27.3648936,49.0308511 29.8617021,49.0308511 C32.3531915,49.0308511 34.3702128,47.0138298 34.3702128,44.5234043 C34.3734043,42.0776596 32.4244681,40.0978723 29.9968085,40.0255319 L29.9968085,40.0255319 Z" id="Shape"></path>
                        <path d="M15.2734043,26.9893617 L8.28404255,29.3308511 C7.47765957,28.0989362 6.0893617,27.2819149 4.50957447,27.2819149 C2.01702128,27.2819149 0,29.3 0,31.7914894 C0,34.2861702 2.01702128,36.3042553 4.50957447,36.3042553 C7,36.3042553 9.02234043,34.2861702 9.02234043,31.7914894 C9.02234043,31.687234 9,31.5914894 8.99148936,31.4893617 L16.0031915,29.1414894 C15.687234,28.4595745 15.4361702,27.7414894 15.2734043,26.9893617 L15.2734043,26.9893617 Z" id="Shape"></path>
                        <circle id="Oval" cx="25.3510638" cy="24.8117021" r="7.73510638"></circle>
                    </g>
                </g>
            </g>
        </g>
    </g>
</svg>