<?xml version="1.0" encoding="UTF-8" standalone="no"?>
<svg width="50px" height="50px" viewBox="0 0 50 50" version="1.1" xmlns="http://www.w3.org/2000/svg" xmlns:xlink="http://www.w3.org/1999/xlink">
    <!-- Generator: Sketch 3.8.1 (29687) - http://www.bohemiancoding.com/sketch -->
    <title>responsive-devices</title>
    <desc>Created with Sketch.</desc>
    <defs></defs>
    <g id="Page-1" stroke="none" stroke-width="1" fill="none" fill-rule="evenodd">
        <g id="responsive-devices" fill="#25A7D9">
            <g id="Capa_1">
                <g id="Group">
                    <path d="M48.3037363,13.7518008 L40.8101099,13.7518008 C39.9075824,13.7518008 39.1759341,14.4588983 39.1759341,15.3272246 L39.1759341,29.0088983 C39.1759341,29.8789195 39.9075824,30.584428 40.8101099,30.584428 L48.3037363,30.584428 C49.2045055,30.584428 49.9362637,29.8789195 49.9362637,29.0088983 L49.9362637,15.3272246 C49.9362637,14.4588983 49.2045055,13.7518008 48.3037363,13.7518008 L48.3037363,13.7518008 Z M48.2208791,15.3272246 L48.2208791,27.5231992 L40.8828571,27.5231992 L40.8101099,15.4069915 L48.2208791,15.3272246 L48.2208791,15.3272246 Z M43.739011,28.9683263 C43.739011,28.5365466 44.103956,28.1813559 44.5552747,28.1813559 C45.0082418,28.1813559 45.3731868,28.5365466 45.3731868,28.9683263 C45.3731868,29.4033898 45.0082418,29.7568856 44.5552747,29.7568856 C44.103956,29.7568856 43.739011,29.4033898 43.739011,28.9683263 L43.739011,28.9683263 Z" id="Shape"></path>
                    <path d="M11.8816484,22.9648305 L11.8816484,27.0295551 L10.5228571,27.0295551 C9.57483516,27.0295551 8.80747253,27.7709746 8.80747253,28.6848517 C8.80747253,29.5989407 9.57483516,30.3383475 10.5228571,30.3383475 L21.7058242,30.3383475 C22.6540659,30.3383475 23.422967,29.5989407 23.422967,28.6848517 C23.422967,27.7709746 22.6540659,27.0295551 21.7058242,27.0295551 L20.3471429,27.0295551 L20.3471429,22.9648305 L28.956044,22.9648305 C30.7186813,22.9648305 32.151978,21.5833686 32.151978,19.8840042 L32.151978,3.08072034 C32.151978,1.3815678 30.7186813,0 28.956044,0 L3.27263736,0 C1.50978022,0 0.0765934066,1.3815678 0.0765934066,3.08072034 L0.0765934066,19.8840042 C0.0765934066,21.5833686 1.50978022,22.9648305 3.27263736,22.9648305 L11.8816484,22.9648305 L11.8816484,22.9648305 Z M3.50912088,3.30889831 L28.7195604,3.30889831 L28.7195604,19.6559322 L3.50912088,19.6559322 L3.50912088,3.30889831 L3.50912088,3.30889831 Z" id="Shape"></path>
                    <path d="M37.0481319,31.6336864 L18.3206593,31.6336864 C16.5494505,31.6336864 15.1078022,33.0233051 15.1078022,34.7306144 L15.1078022,46.809428 C15.1078022,48.5167373 16.5494505,49.9063559 18.3206593,49.9063559 L37.0481319,49.9063559 C38.8192308,49.9063559 40.2607692,48.5167373 40.2607692,46.809428 L40.2607692,34.7306144 C40.2608791,33.0233051 38.8192308,31.6336864 37.0481319,31.6336864 L37.0481319,31.6336864 Z M17.3168132,41.9284958 C16.6526374,41.9284958 16.1151648,41.4119703 16.1151648,40.7700212 C16.1151648,40.128178 16.6526374,39.6100636 17.3168132,39.6100636 C17.9792308,39.6100636 18.5201099,40.1282839 18.5201099,40.7700212 C18.5201099,41.4119703 17.9792308,41.9284958 17.3168132,41.9284958 L17.3168132,41.9284958 Z M37.6869231,46.8095339 C37.6869231,47.1483051 37.3996703,47.4253178 37.0481319,47.4253178 L19.4040659,47.4253178 L19.4040659,34.1149364 L37.0482418,34.1149364 C37.3996703,34.1149364 37.687033,34.3918432 37.687033,34.7307203 L37.687033,46.8095339 L37.6869231,46.8095339 Z" id="Shape"></path>
                    <path d="M4.54505495,42.3260593 L4.54505495,28.2010593 L4.54505495,25.5048729 L1.9710989,25.5048729 L1.9710989,43.5674788 C1.9710989,44.2518008 2.54736264,44.8073093 3.25736264,44.8073093 L11.8815385,44.8073093 L11.8815385,42.3260593 L11.29,42.3260593 L4.54505495,42.3260593 L4.54505495,42.3260593 Z" id="Shape"></path>
                    <path d="M45.1636264,36.3598517 L45.1636264,42.3259534 L42.9125275,42.3259534 L42.4443956,42.3259534 L42.4443956,44.8072034 L46.4515385,44.8072034 C47.1613187,44.8072034 47.7375824,44.2516949 47.7375824,43.5673729 L47.7375824,32.948411 L45.1636264,32.948411 L45.1636264,36.3598517 L45.1636264,36.3598517 Z" id="Shape"></path>
                </g>
            </g>
        </g>
    </g>
</svg>