<?xml version="1.0" encoding="UTF-8" standalone="no"?>
<svg width="50px" height="50px" viewBox="0 0 50 50" version="1.1" xmlns="http://www.w3.org/2000/svg" xmlns:xlink="http://www.w3.org/1999/xlink">
    <!-- Generator: Sketch 3.8.1 (29687) - http://www.bohemiancoding.com/sketch -->
    <title>office-folders</title>
    <desc>Created with Sketch.</desc>
    <defs></defs>
    <g id="Page-1" stroke="none" stroke-width="1" fill="none" fill-rule="evenodd">
        <g id="office-folders" fill="#25A7D9">
            <g id="Capa_1">
                <g id="Layer_5_24_">
                    <g id="Group">
                        <g transform="translate(16.567164, 1.223776)" id="Shape">
                            <path d="M10.6653731,0.0596153846 L1.87179104,0.0596153846 C0.877910448,0.0596153846 0.0647761194,1.01206294 0.0647761194,2.17622378 L0.0647761194,38.5812937 C0.0647761194,39.7454545 0.877910448,40.6979021 1.87179104,40.6979021 L10.6653731,40.6979021 C11.6592537,40.6979021 12.4725373,39.7456294 12.4725373,38.5812937 L12.4725373,2.1763986 C12.4725373,1.01223776 11.6592537,0.0596153846 10.6653731,0.0596153846 L10.6653731,0.0596153846 Z M6.26850746,37.4300699 C4.33716418,37.4300699 2.76567164,35.5895105 2.76567164,33.3270979 C2.76567164,31.0648601 4.33701493,29.223951 6.26850746,29.223951 C8.2,29.223951 9.77164179,31.0646853 9.77164179,33.3270979 C9.77164179,35.5895105 8.2,37.4300699 6.26850746,37.4300699 L6.26850746,37.4300699 Z M10.8462687,19.6734266 C10.8462687,20.4496503 10.3041791,21.0844406 9.64164179,21.0844406 L2.8958209,21.0844406 C2.23328358,21.0844406 1.69119403,20.4496503 1.69119403,19.6734266 L1.69119403,5.09248252 C1.69119403,4.31643357 2.23328358,3.68146853 2.8958209,3.68146853 L9.64164179,3.68146853 C10.3041791,3.68146853 10.8462687,4.31643357 10.8462687,5.09248252 L10.8462687,19.6734266 L10.8462687,19.6734266 L10.8462687,19.6734266 Z"></path>
                            <path d="M6.9919403,8.10961538 L3.23776119,8.10961538 C2.90507463,8.10961538 2.63537313,7.79353147 2.63537313,7.4041958 C2.63537313,7.01451049 2.90522388,6.69842657 3.23776119,6.69842657 L6.9919403,6.69842657 C7.32462687,6.69842657 7.59432836,7.01451049 7.59432836,7.4041958 C7.59432836,7.79370629 7.32447761,8.10961538 6.9919403,8.10961538 L6.9919403,8.10961538 Z"></path>
                        </g>
                        <g transform="translate(1.940299, 1.223776)" id="Shape">
                            <path d="M10.6674627,0.0596153846 L1.87373134,0.0596153846 C0.879850746,0.0596153846 0.0667164179,1.01206294 0.0667164179,2.17622378 L0.0667164179,38.5812937 C0.0667164179,39.7454545 0.879850746,40.6979021 1.87373134,40.6979021 L10.6674627,40.6979021 C11.6613433,40.6979021 12.4743284,39.7456294 12.4743284,38.5812937 L12.4743284,2.1763986 C12.4743284,1.01223776 11.6613433,0.0596153846 10.6674627,0.0596153846 L10.6674627,0.0596153846 Z M6.27044776,37.4300699 C4.33910448,37.4300699 2.76746269,35.5895105 2.76746269,33.3270979 C2.76746269,31.0648601 4.33895522,29.223951 6.27044776,29.223951 C8.20208955,29.223951 9.77358209,31.0646853 9.77358209,33.3270979 C9.77343284,35.5895105 8.20208955,37.4300699 6.27044776,37.4300699 L6.27044776,37.4300699 Z M10.8480597,19.6734266 C10.8480597,20.4496503 10.3059701,21.0844406 9.64328358,21.0844406 L2.89761194,21.0844406 C2.23507463,21.0844406 1.69298507,20.4496503 1.69298507,19.6734266 L1.69298507,5.09248252 C1.69298507,4.31643357 2.23507463,3.68146853 2.89761194,3.68146853 L9.64328358,3.68146853 C10.3059701,3.68146853 10.8480597,4.31643357 10.8480597,5.09248252 L10.8480597,19.6734266 L10.8480597,19.6734266 Z"></path>
                            <path d="M6.9938806,8.10961538 L3.23955224,8.10961538 C2.90686567,8.10961538 2.63716418,7.79353147 2.63716418,7.4041958 C2.63716418,7.01451049 2.90701493,6.69842657 3.23955224,6.69842657 L6.9938806,6.69842657 C7.32656716,6.69842657 7.5961194,7.01451049 7.5961194,7.4041958 C7.5961194,7.79370629 7.32656716,8.10961538 6.9938806,8.10961538 L6.9938806,8.10961538 Z"></path>
                            <path d="M6.9938806,11.4666084 L3.23955224,11.4666084 C2.90686567,11.4666084 2.63716418,11.1505245 2.63716418,10.761014 C2.63716418,10.3711538 2.90701493,10.0555944 3.23955224,10.0555944 L6.9938806,10.0555944 C7.32656716,10.0555944 7.5961194,10.3713287 7.5961194,10.761014 C7.5961194,11.1506993 7.32656716,11.4666084 6.9938806,11.4666084 L6.9938806,11.4666084 Z"></path>
                            <path d="M6.9938806,14.8236014 L3.23955224,14.8236014 C2.90686567,14.8236014 2.63716418,14.5076923 2.63716418,14.1181818 C2.63716418,13.7284965 2.90701493,13.4124126 3.23955224,13.4124126 L6.9938806,13.4124126 C7.32656716,13.4124126 7.5961194,13.7284965 7.5961194,14.1181818 C7.5961194,14.5076923 7.32656716,14.8236014 6.9938806,14.8236014 L6.9938806,14.8236014 Z"></path>
                        </g>
                        <g transform="translate(30.895522, 0.000000)" id="Shape">
                            <path d="M16.9995522,37.9493007 L12.3540299,1.95314685 C12.2053731,0.802097902 11.28,0.00262237762 10.2973134,0.176748252 L1.6019403,1.71643357 C0.619253731,1.89038462 -0.0629850746,2.97447552 0.0853731343,4.12552448 L4.73104478,40.1216783 C4.87970149,41.2727273 5.80507463,42.0722028 6.78791045,41.8980769 L15.4828358,40.3583916 C16.4655224,40.1844406 17.1483582,39.1003497 16.9995522,37.9493007 L16.9995522,37.9493007 Z M5.29746269,22.3255245 C4.64208955,22.4416084 4.02537313,21.9085664 3.9261194,21.1412587 L2.06567164,6.72412587 C1.96671642,5.95664336 2.42164179,5.23409091 3.07686567,5.11783217 L9.74686567,3.93671329 C10.4019403,3.82097902 11.018806,4.35384615 11.1179104,5.12115385 L12.9786567,19.5384615 C13.0776119,20.3059441 12.6226866,21.0286713 11.9674627,21.1445804 L5.29746269,22.3255245 L5.29746269,22.3255245 Z M13.0140299,36.2751748 C12.4586567,37.1575175 11.6432836,37.7333916 10.7180597,37.8972028 C10.5437313,37.9281469 10.3662687,37.9437063 10.1908955,37.9437063 C8.47522388,37.9437063 6.98776119,36.4433566 6.73104478,34.4534965 C6.59104478,33.3697552 6.82,32.2870629 7.37522388,31.4050699 C7.93059701,30.5229021 8.74597015,29.9468531 9.67104478,29.7832168 C9.84567164,29.7522727 10.0228358,29.7365385 10.198209,29.7365385 C11.9140299,29.7365385 13.4016418,31.2370629 13.658209,33.2269231 C13.798209,34.3104895 13.569403,35.3931818 13.0140299,36.2751748 L13.0140299,36.2751748 Z"></path>
                            <path d="M3.67835821,7.81013986 C3.38552239,7.81013986 3.12865672,7.55944056 3.08358209,7.20996503 C3.03402985,6.82465035 3.26029851,6.46503497 3.58910448,6.40681818 L7.30119403,5.74947552 C7.63119403,5.69073427 7.93701493,5.95629371 7.98686567,6.34160839 C8.03656716,6.72692308 7.81014925,7.08653846 7.48134328,7.14475524 L3.76925373,7.8020979 C3.73850746,7.80769231 3.70820896,7.81013986 3.67835821,7.81013986 L3.67835821,7.81013986 Z"></path>
                            <path d="M4.09835821,11.0655594 C3.80537313,11.0655594 3.54865672,10.8148601 3.50373134,10.4652098 C3.4538806,10.0798951 3.68029851,9.72045455 4.00910448,9.66223776 L9.8058209,8.63583916 C10.1355224,8.57674825 10.4416418,8.84283217 10.4913433,9.22797203 C10.541194,9.61328671 10.3147761,9.9729021 9.9858209,10.0311189 L4.18925373,11.0573427 C4.15865672,11.0629371 4.12820896,11.0655594 4.09835821,11.0655594 L4.09835821,11.0655594 Z"></path>
                        </g>
                        <path d="M49.9228358,48.3582168 C49.9228358,49.2236014 49.3183582,49.9316434 48.5795522,49.9316434 L1.34328358,49.9316434 C0.604477612,49.9316434 0,49.2236014 0,48.3582168 L0,46.9786713 C0,46.1132867 0.604477612,45.4052448 1.34328358,45.4052448 L48.5795522,45.4052448 C49.3183582,45.4052448 49.9228358,46.1132867 49.9228358,46.9786713 L49.9228358,48.3582168 L49.9228358,48.3582168 Z" id="Shape"></path>
                    </g>
                </g>
            </g>
        </g>
    </g>
</svg>