<?xml version="1.0" encoding="UTF-8" standalone="no"?>
<svg width="50px" height="50px" viewBox="0 0 50 50" version="1.1" xmlns="http://www.w3.org/2000/svg" xmlns:xlink="http://www.w3.org/1999/xlink">
    <!-- Generator: Sketch 3.8.1 (29687) - http://www.bohemiancoding.com/sketch -->
    <title>refresh</title>
    <desc>Created with Sketch.</desc>
    <defs></defs>
    <g id="Page-1" stroke="none" stroke-width="1" fill="none" fill-rule="evenodd">
        <g id="refresh">
            <g id="Layer_1">
                <g id="Group">
                    <g id="Shape">
                        <path d="M24.9602851,40.0526477 C26.9460285,40.0526477 28.8808554,39.6656823 30.7240326,38.9019348 C34.4511202,37.3642566 37.3431772,34.4620163 38.8910387,30.7349287 C40.4389002,27.0078411 40.4389002,22.9141548 38.8910387,19.1870672 C36.5488798,13.5251527 31.0702648,9.86934827 24.9399185,9.86934827 C22.9541752,9.86934827 21.0193483,10.2563136 19.1761711,11.0200611 C11.48778,14.1972505 7.82179226,23.0465377 11.009165,30.7349287 C13.3513238,36.3866599 18.8299389,40.0526477 24.9602851,40.0526477 L24.9602851,40.0526477 Z M19.9501018,12.8836049 C21.5488798,12.2216904 23.2291242,11.8856415 24.9399185,11.8856415 C30.2454175,11.8856415 34.990835,15.0526477 37.0274949,19.960998 C38.3615071,23.1891039 38.3615071,26.7430754 37.0274949,29.960998 C35.6934827,33.1891039 33.1782077,35.6941955 29.9501018,37.038391 C28.3513238,37.7003055 26.6710794,38.0363544 24.9602851,38.0363544 C19.6547862,38.0363544 14.9093686,34.8693483 12.8727088,29.960998 C10.1130346,23.3011202 13.290224,15.6330957 19.9501018,12.8836049 L19.9501018,12.8836049 Z" fill="#9B9B9B"></path>
                        <path d="M1.46741344,33.4029532 C1.62016293,33.8102851 2.00712831,34.0750509 2.41446029,34.0750509 C2.52647658,34.0750509 2.63849287,34.0546843 2.75050916,34.0139511 C3.26985743,33.8306517 3.54480652,33.2502037 3.36150713,32.7206721 C0.377800407,24.3805499 2.36354379,15.2664969 8.55498982,8.93248473 C12.8319756,4.55366599 18.5651731,2.09949084 24.685336,2.02820774 C30.7953157,1.95692464 36.589613,4.2685336 40.9684318,8.54551935 L38.392057,8.57606925 C37.8319756,8.58625255 37.3940937,9.03431772 37.3940937,9.59439919 C37.404277,10.1442974 37.8523422,10.5923625 38.4022403,10.5923625 L38.4124236,10.5923625 L43.4226069,10.5312627 C43.6873727,10.5312627 43.9419552,10.4192464 44.1354379,10.2257637 C44.3187373,10.0322811 44.4205703,9.77769857 44.4205703,9.51293279 L44.3594705,4.50274949 C44.3492872,3.94266802 43.901222,3.48441955 43.3411405,3.50478615 C42.7810591,3.51496945 42.3431772,3.96303462 42.3431772,4.52311609 L42.3737271,7.09949084 C37.607943,2.44572301 31.3248473,-0.0695519348 24.6649695,0.0017311609 C18.0050916,0.0933808554 11.7627291,2.751222 7.1089613,7.51700611 C3.7790224,10.9284114 1.49796334,15.1952138 0.530549898,19.8387984 C-0.416496945,24.3703666 -0.0906313646,29.0546843 1.46741344,33.4029532 L1.46741344,33.4029532 Z" fill="#25A7D9"></path>
                    </g>
                    <path d="M41.3452138,40.9793279 C32.5162933,50.0220978 17.9745418,50.1850305 8.93177189,41.3662933 L11.5081466,41.3357434 C12.0682281,41.3255601 12.50611,40.8774949 12.50611,40.3174134 C12.4959267,39.7675153 12.0478615,39.3194501 11.4979633,39.3194501 L11.48778,39.3194501 L6.47759674,39.3805499 C5.91751527,39.3907332 5.4796334,39.8387984 5.4796334,40.3988798 L5.5407332,45.4090631 C5.5509165,45.9589613 5.99898167,46.4070265 6.54887984,46.4070265 L6.55906314,46.4070265 C7.1191446,46.3968432 7.55702648,45.948778 7.55702648,45.3886965 L7.52647658,42.8123218 C12.3737271,47.5373727 18.6568228,49.8998982 24.9501018,49.8998982 C31.4368635,49.8998982 37.913442,47.3948065 42.7912424,42.4049898 C46.1211813,38.9935845 48.4022403,34.7267821 49.3696538,30.0831976 C50.3167006,25.5618126 49.990835,20.8673116 48.4327902,16.5292261 C48.2494908,16.0098778 47.6690428,15.7349287 47.1395112,15.9182281 C46.6201629,16.1015275 46.3452138,16.6819756 46.5285132,17.2115071 C49.5224033,25.5312627 47.5366599,34.6453157 41.3452138,40.9793279 L41.3452138,40.9793279 Z" id="Shape" fill="#25A7D9"></path>
                </g>
            </g>
        </g>
    </g>
</svg>