<?xml version="1.0" encoding="UTF-8" standalone="no"?>
<svg width="50px" height="50px" viewBox="0 0 50 50" version="1.1" xmlns="http://www.w3.org/2000/svg" xmlns:xlink="http://www.w3.org/1999/xlink">
    <!-- Generator: Sketch 3.8.1 (29687) - http://www.bohemiancoding.com/sketch -->
    <title>settings</title>
    <desc>Created with Sketch.</desc>
    <defs></defs>
    <g id="Page-1" stroke="none" stroke-width="1" fill="none" fill-rule="evenodd">
        <g id="settings" fill="#25A7D9">
            <g id="Group">
                <path d="M4.78632479,47.7350427 C4.78632479,48.7179487 5.55555556,49.4871795 6.53846154,49.4871795 C7.52136752,49.4871795 8.29059829,48.7179487 8.29059829,47.7350427 L8.29059829,13.034188 C11.1111111,12.2649573 13.2051282,9.7008547 13.2051282,6.62393162 C13.2051282,2.99145299 10.2564103,3.55271368e-15 6.58119658,3.55271368e-15 C2.90598291,3.55271368e-15 -8.8817842e-16,2.99145299 -8.8817842e-16,6.62393162 C-8.8817842e-16,9.65811966 2.05128205,12.2222222 4.82905983,12.991453 L4.82905983,47.7350427 L4.78632479,47.7350427 Z M3.41880342,6.62393162 C3.41880342,4.91452991 4.82905983,3.5042735 6.53846154,3.5042735 C8.24786325,3.5042735 9.65811966,4.91452991 9.65811966,6.62393162 C9.65811966,8.33333333 8.24786325,9.74358974 6.53846154,9.74358974 C4.82905983,9.74358974 3.41880342,8.33333333 3.41880342,6.62393162 L3.41880342,6.62393162 Z" id="Shape"></path>
                <path d="M24.5811966,0 C23.5982906,0 22.8290598,0.769230769 22.8290598,1.75213675 L22.8290598,19.7863248 C20.0512821,20.5555556 18,23.1196581 18,26.1538462 C18,29.1880342 20.0512821,31.7521368 22.8290598,32.5213675 L22.8290598,47.7777778 C22.8290598,48.7606838 23.5982906,49.5299145 24.5811966,49.5299145 C25.5641026,49.5299145 26.3333333,48.7606838 26.3333333,47.7777778 L26.3333333,32.5213675 C29.1538462,31.7521368 31.2478632,29.1880342 31.2478632,26.1111111 C31.2478632,23.034188 29.1538462,20.4700855 26.3333333,19.7008547 L26.3333333,1.75213675 C26.3333333,0.769230769 25.5641026,7.59126854e-15 24.5811966,7.59126854e-15 L24.5811966,0 Z M27.7863248,26.1538462 C27.7863248,27.8632479 26.3760684,29.2735043 24.6666667,29.2735043 C22.957265,29.2735043 21.5470085,27.8632479 21.5470085,26.1538462 C21.5470085,24.4444444 22.957265,23.034188 24.6666667,23.034188 C26.3760684,23.034188 27.7863248,24.4017094 27.7863248,26.1538462 L27.7863248,26.1538462 Z" id="Shape"></path>
                <path d="M44.3760684,36.4957265 L44.3760684,1.75213675 C44.3760684,0.769230769 43.6068376,0 42.6239316,0 C41.6410256,0 40.8717949,0.769230769 40.8717949,1.75213675 L40.8717949,36.4957265 C38.0512821,37.2649573 36,39.8290598 36,42.8632479 C36,46.4957265 38.9487179,49.4871795 42.6239316,49.4871795 C46.2991453,49.4871795 49.2478632,46.5384615 49.2478632,42.8632479 C49.2905983,39.8290598 47.1965812,37.2649573 44.3760684,36.4957265 L44.3760684,36.4957265 Z M42.6666667,45.982906 C40.957265,45.982906 39.5470085,44.5726496 39.5470085,42.8632479 C39.5470085,41.1538462 40.957265,39.7435897 42.6666667,39.7435897 C44.3760684,39.7435897 45.7863248,41.1538462 45.7863248,42.8632479 C45.7863248,44.5726496 44.3760684,45.982906 42.6666667,45.982906 L42.6666667,45.982906 Z" id="Shape"></path>
            </g>
        </g>
    </g>
</svg>