<?xml version="1.0" encoding="UTF-8" standalone="no"?>
<svg width="50px" height="50px" viewBox="0 0 50 50" version="1.1" xmlns="http://www.w3.org/2000/svg" xmlns:xlink="http://www.w3.org/1999/xlink">
    <!-- Generator: Sketch 3.8.1 (29687) - http://www.bohemiancoding.com/sketch -->
    <title>stats</title>
    <desc>Created with Sketch.</desc>
    <defs></defs>
    <g id="Page-1" stroke="none" stroke-width="1" fill="none" fill-rule="evenodd">
        <g id="stats" fill="#25A7D9">
            <g id="Group">
                <path d="M48.034188,46.3247863 L3.67521368,46.3247863 L3.67521368,1.96581197 C3.67521368,0.982905983 2.90598291,0.213675214 1.92307692,0.213675214 C0.94017094,0.213675214 0.170940171,0.982905983 0.170940171,1.96581197 L0.170940171,48.0769231 C0.170940171,49.0598291 0.94017094,49.8290598 1.92307692,49.8290598 L48.034188,49.8290598 C49.017094,49.8290598 49.7863248,49.0598291 49.7863248,48.0769231 C49.7863248,47.0940171 49.017094,46.3247863 48.034188,46.3247863 L48.034188,46.3247863 Z" id="Shape"></path>
                <path d="M20.6410256,39.5726496 L20.6410256,14.3589744 C20.6410256,13.3760684 19.8717949,12.6068376 18.8888889,12.6068376 C17.9059829,12.6068376 17.1367521,13.3760684 17.1367521,14.3589744 L17.1367521,39.5726496 C17.1367521,40.5555556 17.9059829,41.3247863 18.8888889,41.3247863 C19.8717949,41.3247863 20.6410256,40.5555556 20.6410256,39.5726496 L20.6410256,39.5726496 Z" id="Shape"></path>
                <path d="M12.1794872,39.5726496 L12.1794872,14.3589744 C12.1794872,13.3760684 11.4102564,12.6068376 10.4273504,12.6068376 C9.44444444,12.6068376 8.67521368,13.3760684 8.67521368,14.3589744 L8.67521368,39.5726496 C8.67521368,40.5555556 9.44444444,41.3247863 10.4273504,41.3247863 C11.4102564,41.3247863 12.1794872,40.5555556 12.1794872,39.5726496 L12.1794872,39.5726496 Z" id="Shape"></path>
                <path d="M37.5641026,39.5726496 L37.5641026,14.3589744 C37.5641026,13.3760684 36.7948718,12.6068376 35.8119658,12.6068376 C34.8290598,12.6068376 34.0598291,13.3760684 34.0598291,14.3589744 L34.0598291,39.5726496 C34.0598291,40.5555556 34.8290598,41.3247863 35.8119658,41.3247863 C36.7948718,41.3247863 37.5641026,40.5555556 37.5641026,39.5726496 L37.5641026,39.5726496 Z" id="Shape"></path>
                <path d="M46.025641,39.5726496 L46.025641,26.965812 C46.025641,25.982906 45.2564103,25.2136752 44.2735043,25.2136752 C43.2905983,25.2136752 42.5213675,25.982906 42.5213675,26.965812 L42.5213675,39.5726496 C42.5213675,40.5555556 43.2905983,41.3247863 44.2735043,41.3247863 C45.2564103,41.3247863 46.025641,40.5555556 46.025641,39.5726496 L46.025641,39.5726496 Z" id="Shape"></path>
                <path d="M29.1025641,39.5726496 L29.1025641,26.965812 C29.1025641,25.982906 28.3333333,25.2136752 27.3504274,25.2136752 C26.3675214,25.2136752 25.5982906,25.982906 25.5982906,26.965812 L25.5982906,39.5726496 C25.5982906,40.5555556 26.3675214,41.3247863 27.3504274,41.3247863 C28.3333333,41.3247863 29.1025641,40.5555556 29.1025641,39.5726496 L29.1025641,39.5726496 Z" id="Shape"></path>
            </g>
        </g>
    </g>
</svg>