<svg xmlns="http://www.w3.org/2000/svg" viewBox="0 0 700 700"><defs><style>.cls-1{isolation:isolate;}.cls-2{fill:#c5c5c5;}.cls-3{fill:#898989;}.cls-4{fill:#dcdcdc;}.cls-5{fill:#008900;}.cls-6{fill:#00c500;}.cls-7{fill:#00dc00;}.cls-8{fill:#d1d39f;}.cls-9{fill:#eaed9d;}.cls-10{fill:#1e2b33;}.cls-11{fill:#19242b;}</style></defs><title>datacol-banner-graphic</title><g id="Layer_2" data-name="Layer 2"><g class="cls-1"><polygon class="cls-2" points="672.39 524.66 672.28 565.42 448.86 695.26 448.98 654.5 672.39 524.66"/><polygon class="cls-3" points="448.98 654.5 448.86 695.26 173.6 536.34 173.72 495.58 448.98 654.5"/><polygon class="cls-4" points="672.39 524.66 448.98 654.5 173.72 495.58 397.14 365.74 672.39 524.66"/></g></g><g id="Layer_4" data-name="Layer 4"><g class="cls-1"><polygon class="cls-5" points="477.28 557.12 477.17 597.88 435.31 573.72 435.42 532.96 477.28 557.12"/><polygon class="cls-6" points="435.42 532.96 435.31 573.72 393.73 597.88 393.84 557.12 435.42 532.96"/><polygon class="cls-5" points="435.7 581.29 435.59 622.04 393.73 597.88 393.84 557.12 435.7 581.29"/><polygon class="cls-6" points="477.28 557.12 477.17 597.88 435.59 622.04 435.7 581.29 477.28 557.12"/><polygon class="cls-7" points="477.28 557.12 435.7 581.29 393.84 557.12 435.42 532.96 477.28 557.12"/><polygon class="cls-5" points="435.7 582.11 435.58 622.87 392.31 597.88 392.42 557.12 435.7 582.11"/><polygon class="cls-6" points="478.69 557.12 478.58 597.88 435.58 622.87 435.7 582.11 478.69 557.12"/><path class="cls-7" d="M435.42,532.14l43.28,25-43,25-43.28-25Zm.28,49.15,41.58-24.16L435.42,533l-41.58,24.16,41.86,24.17"/></g><g class="cls-1"><polygon class="cls-5" points="389.28 504.12 389.17 544.88 347.31 520.71 347.42 479.96 389.28 504.12"/><polygon class="cls-6" points="347.42 479.96 347.31 520.71 305.72 544.88 305.84 504.12 347.42 479.96"/><polygon class="cls-5" points="347.7 528.29 347.58 569.05 305.72 544.88 305.84 504.12 347.7 528.29"/><polygon class="cls-6" points="389.28 504.12 389.17 544.88 347.58 569.05 347.7 528.29 389.28 504.12"/><path class="cls-7" d="M347.42,479.14l43.28,25-43,25-43.28-25Zm.28,49.15,41.59-24.17L347.42,480l-41.59,24.17,41.86,24.17"/><polygon class="cls-7" points="389.28 504.12 347.7 528.29 305.84 504.12 347.42 479.96 389.28 504.12"/><polygon class="cls-5" points="347.7 529.11 347.58 569.87 304.31 544.88 304.43 504.12 347.7 529.11"/><polygon class="cls-6" points="390.69 504.12 390.58 544.88 347.58 569.87 347.7 529.11 390.69 504.12"/></g><g class="cls-1"><polygon class="cls-5" points="310.28 447.12 310.17 487.88 268.31 463.71 268.42 422.96 310.28 447.12"/><polygon class="cls-6" points="268.42 422.96 268.31 463.71 226.72 487.88 226.84 447.12 268.42 422.96"/><polygon class="cls-5" points="268.7 471.29 268.58 512.05 226.72 487.88 226.84 447.12 268.7 471.29"/><polygon class="cls-6" points="310.28 447.12 310.17 487.88 268.58 512.05 268.7 471.29 310.28 447.12"/><path class="cls-7" d="M268.42,422.14l43.28,25-43,25-43.28-25Zm.28,49.15,41.59-24.17L268.42,423l-41.59,24.17,41.86,24.17"/><polygon class="cls-7" points="310.28 447.12 268.7 471.29 226.84 447.12 268.42 422.96 310.28 447.12"/><polygon class="cls-5" points="268.7 472.11 268.58 512.87 225.31 487.88 225.43 447.12 268.7 472.11"/><polygon class="cls-6" points="311.69 447.12 311.58 487.88 268.58 512.87 268.7 472.11 311.69 447.12"/></g><g class="cls-1"><polygon class="cls-5" points="561.28 490.12 561.17 530.88 519.31 506.71 519.42 465.96 561.28 490.12"/><polygon class="cls-6" points="519.42 465.96 519.31 506.71 477.72 530.88 477.84 490.12 519.42 465.96"/><polygon class="cls-5" points="519.7 514.29 519.58 555.05 477.72 530.88 477.84 490.12 519.7 514.29"/><polygon class="cls-6" points="561.28 490.12 561.17 530.88 519.58 555.05 519.7 514.29 561.28 490.12"/><path class="cls-7" d="M519.42,465.14l43.28,25-43,25-43.28-25Zm.28,49.15,41.59-24.17L519.42,466l-41.59,24.17,41.86,24.17"/><polygon class="cls-7" points="561.28 490.12 519.7 514.29 477.84 490.12 519.42 465.96 561.28 490.12"/><polygon class="cls-5" points="519.7 515.11 519.59 555.87 476.31 530.88 476.43 490.12 519.7 515.11"/><polygon class="cls-6" points="562.69 490.12 562.58 530.88 519.59 555.87 519.7 515.11 562.69 490.12"/></g><g class="cls-1"><polygon class="cls-5" points="473.28 437.12 473.17 477.88 431.31 453.71 431.42 412.96 473.28 437.12"/><polygon class="cls-6" points="431.42 412.96 431.31 453.71 389.72 477.88 389.84 437.12 431.42 412.96"/><polygon class="cls-5" points="431.7 461.29 431.58 502.05 389.72 477.88 389.84 437.12 431.7 461.29"/><polygon class="cls-6" points="473.28 437.12 473.17 477.88 431.58 502.05 431.7 461.29 473.28 437.12"/><path class="cls-7" d="M431.42,412.14l43.28,25-43,25-43.28-25Zm.28,49.15,41.59-24.17L431.42,413l-41.59,24.17,41.86,24.17"/><polygon class="cls-7" points="473.28 437.12 431.7 461.29 389.84 437.12 431.42 412.96 473.28 437.12"/><polygon class="cls-5" points="431.7 462.11 431.58 502.87 388.31 477.88 388.43 437.12 431.7 462.11"/><polygon class="cls-6" points="474.69 437.12 474.58 477.88 431.58 502.87 431.7 462.11 474.69 437.12"/></g><g class="cls-1"><polygon class="cls-5" points="394.28 380.12 394.17 420.88 352.31 396.71 352.42 355.96 394.28 380.12"/><polygon class="cls-6" points="352.42 355.96 352.31 396.71 310.72 420.88 310.84 380.12 352.42 355.96"/><polygon class="cls-5" points="352.7 404.29 352.58 445.05 310.72 420.88 310.84 380.12 352.7 404.29"/><polygon class="cls-6" points="394.28 380.12 394.17 420.88 352.58 445.05 352.7 404.29 394.28 380.12"/><path class="cls-7" d="M352.42,355.14l43.28,25-43,25-43.28-25Zm.28,49.15,41.59-24.17L352.42,356l-41.59,24.17,41.86,24.17"/><polygon class="cls-7" points="394.28 380.12 352.7 404.29 310.84 380.12 352.42 355.96 394.28 380.12"/><polygon class="cls-5" points="352.7 405.11 352.58 445.87 309.31 420.88 309.43 380.12 352.7 405.11"/><polygon class="cls-6" points="395.69 380.12 395.58 420.88 352.58 445.87 352.7 405.11 395.69 380.12"/></g></g><g id="Layer_3" data-name="Layer 3"><g class="cls-1"><polygon class="cls-8" points="386.64 230.65 386.53 271.41 163.81 400.84 163.93 360.08 386.64 230.65"/><polygon class="cls-8" points="661.18 389.16 661.07 429.92 386.53 271.41 386.64 230.65 661.18 389.16"/><polygon class="cls-9" points="438.47 518.59 438.36 559.35 163.81 400.84 163.93 360.08 438.47 518.59"/><polygon class="cls-8" points="438.47 519.41 438.35 560.17 162.4 400.84 162.51 360.08 438.47 519.41"/><path class="cls-8" d="M386.64,229.83l276,159.32L438.47,519.41l-276-159.32Zm51.83,288.75L661.19,389.16,386.64,230.65,163.93,360.08,438.47,518.59"/><polygon class="cls-9" points="661.18 389.16 661.07 429.92 438.36 559.35 438.47 518.59 661.18 389.16"/><polygon class="cls-9" points="661.18 389.16 438.47 518.59 163.93 360.08 386.64 230.65 661.18 389.16"/><polygon class="cls-8" points="662.6 389.16 662.48 429.92 438.35 560.17 438.47 519.41 662.6 389.16"/></g><g class="cls-1"><polygon class="cls-10" points="386.64 132.65 386.53 173.41 163.81 302.84 163.92 262.08 386.64 132.65"/><polygon class="cls-10" points="661.18 291.16 661.07 331.92 386.53 173.41 386.64 132.65 661.18 291.16"/><polygon class="cls-11" points="438.46 420.59 438.35 461.35 163.81 302.84 163.92 262.08 438.46 420.59"/><polygon class="cls-10" points="438.47 421.41 438.35 462.17 162.4 302.84 162.51 262.08 438.47 421.41"/><polygon class="cls-11" points="661.18 291.16 438.46 420.59 163.92 262.08 386.64 132.65 661.18 291.16"/><path class="cls-10" d="M386.64,131.83l276,159.32L438.47,421.41l-276-159.32Zm51.82,288.76L661.19,291.16,386.65,132.65,163.92,262.08,438.46,420.59"/><polygon class="cls-11" points="661.18 291.16 661.07 331.92 438.35 461.35 438.46 420.59 661.18 291.16"/><polygon class="cls-10" points="662.6 291.16 662.48 331.92 438.35 462.17 438.47 421.41 662.6 291.16"/></g><g class="cls-1"><polygon class="cls-5" points="453.31 191.89 453.13 257.1 411.27 232.94 411.46 167.73 453.31 191.89"/><polygon class="cls-6" points="411.46 167.73 411.27 232.94 369.69 257.11 369.87 191.9 411.46 167.73"/><polygon class="cls-5" points="411.73 216.06 411.54 281.27 369.69 257.11 369.87 191.9 411.73 216.06"/><polygon class="cls-6" points="453.31 191.89 453.13 257.1 411.54 281.27 411.73 216.06 453.31 191.89"/><polygon class="cls-7" points="453.31 191.89 411.73 216.06 369.87 191.9 411.46 167.73 453.31 191.89"/><polygon class="cls-5" points="411.73 216.88 411.54 282.09 368.28 257.11 368.46 191.9 411.73 216.88"/><polygon class="cls-6" points="454.72 191.89 454.54 257.1 411.54 282.09 411.73 216.88 454.72 191.89"/><path class="cls-7" d="M411.45,166.91l43.27,25-43,25-43.27-25Zm.27,49.15,41.59-24.17-41.85-24.16L369.87,191.9l41.85,24.16"/></g><g class="cls-1"><polygon class="cls-5" points="514.32 223.9 514.13 289.11 472.27 264.94 472.46 199.73 514.32 223.9"/><polygon class="cls-6" points="472.46 199.73 472.27 264.94 430.69 289.11 430.88 223.89 472.46 199.73"/><polygon class="cls-5" points="472.74 248.06 472.55 313.27 430.69 289.11 430.88 223.89 472.74 248.06"/><polygon class="cls-6" points="514.32 223.9 514.13 289.11 472.55 313.27 472.74 248.06 514.32 223.9"/><path class="cls-7" d="M472.45,198.91l43.28,25-43,25-43.28-25Zm.28,49.15,41.58-24.16-41.86-24.17-41.58,24.16,41.86,24.17"/><polygon class="cls-7" points="514.32 223.9 472.74 248.06 430.88 223.89 472.46 199.73 514.32 223.9"/><polygon class="cls-5" points="472.73 248.88 472.55 314.1 429.27 289.11 429.46 223.9 472.73 248.88"/><polygon class="cls-6" points="515.73 223.9 515.54 289.11 472.55 314.1 472.73 248.88 515.73 223.9"/></g><g class="cls-1"><polygon class="cls-5" points="396.31 223.89 396.13 289.11 354.27 264.94 354.46 199.73 396.31 223.89"/><polygon class="cls-6" points="354.46 199.73 354.27 264.94 312.69 289.11 312.87 223.9 354.46 199.73"/><polygon class="cls-5" points="354.73 248.06 354.54 313.27 312.69 289.11 312.87 223.9 354.73 248.06"/><polygon class="cls-6" points="396.31 223.89 396.13 289.11 354.54 313.27 354.73 248.06 396.31 223.89"/><polygon class="cls-7" points="396.31 223.89 354.73 248.06 312.87 223.9 354.46 199.73 396.31 223.89"/><polygon class="cls-5" points="354.73 248.88 354.55 314.09 311.27 289.11 311.45 223.9 354.73 248.88"/><polygon class="cls-6" points="397.72 223.89 397.54 289.11 354.55 314.09 354.73 248.88 397.72 223.89"/><path class="cls-7" d="M354.45,198.91l43.28,25-43,25-43.28-25Zm.28,49.15,41.59-24.17-41.85-24.16L312.87,223.9l41.85,24.16"/></g><g class="cls-1"><polygon class="cls-5" points="454.31 253.89 454.13 319.11 412.27 294.94 412.46 229.73 454.31 253.89"/><polygon class="cls-6" points="412.46 229.73 412.27 294.94 370.69 319.11 370.87 253.9 412.46 229.73"/><polygon class="cls-5" points="412.73 278.06 412.54 343.27 370.69 319.11 370.87 253.9 412.73 278.06"/><polygon class="cls-6" points="454.31 253.89 454.13 319.11 412.54 343.27 412.73 278.06 454.31 253.89"/><polygon class="cls-7" points="454.31 253.89 412.73 278.06 370.87 253.9 412.46 229.73 454.31 253.89"/><polygon class="cls-5" points="412.73 278.88 412.55 344.09 369.27 319.11 369.45 253.9 412.73 278.88"/><polygon class="cls-6" points="455.72 253.89 455.54 319.11 412.55 344.09 412.73 278.88 455.72 253.89"/><path class="cls-7" d="M412.45,228.91l43.28,25-43,25-43.28-25Zm.28,49.15,41.59-24.17-41.85-24.16L370.87,253.9l41.85,24.16"/></g></g></svg>